<?xml version="1.0" encoding="UTF-8"?>
<svg width="102px" height="99px" viewBox="0 0 102 99" version="1.1" xmlns="http://www.w3.org/2000/svg" xmlns:xlink="http://www.w3.org/1999/xlink">
    <!-- Generator: Sketch 52.5 (67469) - http://www.bohemiancoding.com/sketch -->
    <title>Group 13 Copy 2</title>
    <desc>Created with Sketch.</desc>
    <defs>
        <linearGradient x1="36.92313%" y1="12.4791023%" x2="63.6615034%" y2="66.4575181%" id="linearGradient-1">
            <stop stop-color="#33CCCC" offset="0%"></stop>
            <stop stop-color="#2980B9" offset="99.9909682%"></stop>
        </linearGradient>
        <linearGradient x1="40.6033883%" y1="41.9833937%" x2="62.4025607%" y2="89.77147%" id="linearGradient-2">
            <stop stop-color="#C62766" offset="0%"></stop>
            <stop stop-color="#FF904B" offset="45.5789379%"></stop>
            <stop stop-color="#FFB252" offset="81%"></stop>
            <stop stop-color="#FFBF55" offset="100%"></stop>
        </linearGradient>
    </defs>
    <g id="Charte" stroke="none" stroke-width="1" fill="none" fill-rule="evenodd">
        <g id="Group-13-Copy-2" transform="translate(0.000000, -0.500000)">
            <g id="Group-12" transform="translate(0.000000, 0.537634)">
                <g id="Group">
                    <path d="M5.29783156,31.9649469 C4.85271652,29.3093851 6.63879329,27.315087 7.75579335,25.3235908 C15.7910326,11.8146202 27.3991275,3.17966649 43.0244909,0.74405897 C62.6685271,-2.35771558 78.7418139,4.28574192 91.0189855,19.7862088 C98.1611863,28.6432181 101.286119,39.0518152 101.064263,50.3451326 C100.840301,57.4298994 99.2781864,64.2954126 95.7060329,70.4947588 C94.3671773,70.7168144 94.1432157,71.8249913 93.474139,72.7104121 C87.0010148,80.9040564 78.7418139,86.439337 68.2486129,87.9895237 C53.2923261,90.2030756 41.0151545,85.3311601 31.1931365,74.2605989 C28.9612426,71.6029357 26.7300507,68.7253183 26.0588678,65.1815339 C26.9519062,66.0676551 27.8449446,66.7310201 28.5140213,67.6171414 C30.9691748,70.9388701 34.3180687,73.5965333 38.1141839,75.3687758 C47.4882787,79.7958795 57.0884413,79.5738238 66.016719,74.2605989 C74.9456987,69.1673282 79.4108906,61.1957395 80.303929,51.2305533 C80.749044,45.0312072 78.9629673,39.4938251 76.5078138,34.1806002 C75.6147754,33.0724233 75.8387371,31.7449927 75.1689583,30.6368157 C71.5968047,25.1015352 67.3555745,20.2296196 61.7754887,16.6865357 C50.6146151,10.0430782 38.7832607,8.93700276 26.7300507,13.3648069 C23.1578972,14.6922376 20.0329649,16.2445258 17.1298881,18.6801333 C12.2188791,22.2218163 8.42487006,26.6510214 5.29783156,31.9649469 Z" id="Path" fill="url(#linearGradient-1)"></path>
                    <path d="M24.860447,64.8482292 C25.5417707,68.6093074 27.8066731,71.4869906 30.0722882,73.9208765 C40.0427051,84.9836122 52.5053698,89.8520839 67.6876279,87.6400968 C78.3393685,86.0910058 86.7233559,80.5596379 93.2942811,72.3717855 C93.9734668,71.4869906 94.2008122,70.3795971 95.5598962,70.1576984 C96.2390819,71.2650919 95.5598962,71.9286881 95.1073433,72.8134829 C91.2538734,79.6741431 86.0420322,85.2055109 79.2458996,89.8520839 C70.4072212,95.8272492 60.6641498,98.9247312 50.2397547,98.9247312 C37.77709,98.7049325 26.4461637,95.163653 17.1577832,86.5327032 C3.106551,73.6989778 -2.55784308,57.9875691 1.06828137,39.6224758 C1.52083424,36.9666913 2.65471081,34.3109067 3.78573666,31.6551221 C6.96002091,26.5668517 10.8113528,21.9188787 15.5692158,18.3796993 C18.5161546,16.1656122 21.9156462,14.3946225 25.3144252,13.0681302 C37.77709,8.64345589 49.5605691,9.74874946 60.8893572,16.3875109 C66.7810968,19.7068916 70.8611995,24.796562 74.4858986,30.3279299 C75.1650842,31.4353234 74.9398768,32.9837144 75.8464079,33.8692093 C74.7125313,33.6473106 74.4858986,32.7618157 74.0333457,32.0989196 C67.0077296,23.4672697 57.9445565,19.4849929 46.6136303,20.8135852 C24.1805486,23.4672697 14.8900301,47.1467321 24.860447,64.8482292 Z" id="Path" fill="url(#linearGradient-2)"></path>
                </g>
            </g>
        </g>
    </g>
</svg>