<?xml version="1.0" standalone="no"?><!-- Generator: Gravit.io --><svg xmlns="http://www.w3.org/2000/svg" xmlns:xlink="http://www.w3.org/1999/xlink" style="isolation:isolate" viewBox="224.821 452.438 141.732 141.732" width="141.732" height="141.732"><g id="Group"><linearGradient id="_lgradient_0" x1="36.92313003233956%" y1="12.479102310505208%" x2="63.66391853213278%" y2="66.46239379837868%"><stop offset="0%" stop-opacity="1" style="stop-color:rgb(77,217,252)"/><stop offset="100%" stop-opacity="1" style="stop-color:rgb(155,161,253)"/></linearGradient><path d=" M 230.133 498.07 C 229.499 494.279 232.043 491.432 233.634 488.589 C 245.079 469.304 261.613 456.977 283.869 453.5 C 311.849 449.072 334.743 458.556 352.23 480.684 C 362.403 493.328 366.854 508.187 366.538 524.309 C 366.219 534.423 363.994 544.224 358.906 553.074 C 356.999 553.391 356.68 554.973 355.727 556.237 C 346.507 567.934 334.743 575.836 319.797 578.049 C 298.494 581.209 281.007 574.254 267.017 558.45 C 263.838 554.656 260.66 550.548 259.704 545.489 C 260.976 546.754 262.248 547.701 263.201 548.966 C 266.698 553.708 271.468 557.502 276.875 560.032 C 290.227 566.352 303.901 566.035 316.618 558.45 C 329.336 551.179 335.696 539.799 336.968 525.573 C 337.602 516.723 335.058 508.818 331.561 501.233 C 330.289 499.651 330.608 497.756 329.654 496.174 C 324.566 488.272 318.525 481.317 310.577 476.259 C 294.68 466.775 277.828 465.196 260.66 471.517 C 255.572 473.412 251.121 475.628 246.986 479.105 C 239.991 484.161 234.587 490.484 230.133 498.07 L 230.133 498.07 Z " fill="url(#_lgradient_0)"/><linearGradient id="_lgradient_1" x1="40.603388267203485%" y1="41.983393738804445%" x2="62.40256067867085%" y2="89.77146998240639%"><stop offset="0%" stop-opacity="1" style="stop-color:rgb(255,91,63)"/><stop offset="46%" stop-opacity="1" style="stop-color:rgb(255,144,75)"/><stop offset="81%" stop-opacity="1" style="stop-color:rgb(255,178,82)"/><stop offset="100%" stop-opacity="1" style="stop-color:rgb(255,191,85)"/></linearGradient><path d=" M 259.704 545.489 C 260.66 550.862 263.838 554.973 267.017 558.45 C 281.007 574.254 298.494 581.209 319.797 578.049 C 334.743 575.836 346.507 567.934 355.727 556.237 C 356.68 554.973 356.999 553.391 358.906 553.074 C 359.859 554.656 358.906 555.604 358.271 556.868 C 352.864 566.669 345.551 574.571 336.015 581.209 C 323.613 589.745 309.942 594.17 295.315 594.17 C 277.828 593.856 261.929 588.797 248.896 576.467 C 229.18 558.133 221.232 535.688 226.32 509.452 C 226.955 505.658 228.546 501.864 230.133 498.07 C 234.587 490.801 239.991 484.161 246.667 479.105 C 250.802 475.942 255.572 473.412 260.341 471.517 C 277.828 465.196 294.362 466.775 310.258 476.259 C 318.525 481.001 324.25 488.272 329.336 496.174 C 330.289 497.756 329.973 499.968 331.245 501.233 C 329.654 500.916 329.336 499.651 328.701 498.704 C 318.843 486.373 306.126 480.684 290.227 482.582 C 258.75 486.373 245.714 520.201 259.704 545.489 L 259.704 545.489 Z " fill="url(#_lgradient_1)"/></g></svg>